<svg width="216" height="112" viewBox="0 0 216 112" fill="none" xmlns="http://www.w3.org/2000/svg">
<g clip-path="url(#clip0_24_191)">
<path d="M2 108C2 94.0798 4.74178 80.296 10.0688 67.4355C15.3958 54.575 23.2037 42.8896 33.0467 33.0466C42.8897 23.2036 54.5751 15.3957 67.4356 10.0687C80.2961 4.74175 94.0799 1.99999 108 2C121.92 2.00001 135.704 4.74179 148.565 10.0688C161.425 15.3958 173.11 23.2037 182.953 33.0467C192.796 42.8897 200.604 54.5751 205.931 67.4356C211.258 80.2961 214 94.0799 214 108" stroke="#FFC318" stroke-width="2" stroke-dasharray="2 13"/>
<path opacity="0.4" d="M0 107.5H216" stroke="#F6C833"/>
<path d="M214 112V104" stroke="#E5BB46" stroke-width="2"/>
<path d="M2 112V104" stroke="#E5BB46" stroke-width="2"/>
</g>
<defs>
<clipPath id="clip0_24_191">
<rect width="216" height="112" fill="white"/>
</clipPath>
</defs>
</svg>
